<svg xmlns="http://www.w3.org/2000/svg" width="1600" height="980" viewBox="0 0 1600 980" role="img" aria-labelledby="title desc">
<title id="title">EstateFlow Command Center preview</title><desc id="desc">Modern ERPNext dashboard with portfolio, occupancy, billing, collections and maintenance metrics.</desc>
<defs><linearGradient id="hero" x1="0" y1="0" x2="1" y2="1"><stop stop-color="#2936a8"/><stop offset="1" stop-color="#7651d8"/></linearGradient><filter id="shadow"><feDropShadow dx="0" dy="10" stdDeviation="14" flood-color="#1c2740" flood-opacity=".09"/></filter></defs>
<rect width="1600" height="980" fill="#f6f7fb"/><rect width="1600" height="68" fill="#fff"/><circle cx="38" cy="34" r="18" fill="#4f46e5"/><path d="M29 39V29l9-7 9 7v10h-6v-8h-6v8z" fill="#fff"/><text x="68" y="41" font-family="Arial,sans-serif" font-size="21" font-weight="700" fill="#172033">EstateFlow</text><text x="1340" y="40" font-family="Arial,sans-serif" font-size="14" fill="#667085">Portfolio Manager</text><circle cx="1530" cy="34" r="20" fill="#eeedff"/><text x="1530" y="40" text-anchor="middle" font-family="Arial" font-weight="700" fill="#4f46e5">PM</text>
<rect x="0" y="68" width="218" height="912" fill="#fff"/><g font-family="Arial,sans-serif" font-size="14" fill="#667085"><text x="28" y="112" font-size="10" font-weight="700" letter-spacing="1">OPERATE</text><rect x="16" y="128" width="186" height="42" rx="10" fill="#efefff"/><text x="54" y="154" fill="#4f46e5" font-weight="700">Command Center</text><text x="54" y="202">Properties</text><text x="54" y="247">Units &amp; Rooms</text><text x="54" y="292">Bookings</text><text x="54" y="337">Agreements</text><text x="54" y="382">Sales</text><text x="28" y="430" font-size="10" font-weight="700" letter-spacing="1">CONTROL</text><text x="54" y="473">Maintenance</text><text x="54" y="518">Housing</text><text x="54" y="563">Utilities</text><text x="54" y="608">Reports</text><text x="54" y="653">Settings</text></g>
<g transform="translate(248 92)"><rect width="1322" height="184" rx="22" fill="url(#hero)" filter="url(#shadow)"/><circle cx="1245" cy="-25" r="115" fill="none" stroke="#fff" stroke-opacity=".18"/><text x="30" y="42" font-family="Arial" font-size="10" font-weight="700" letter-spacing="2" fill="#fff" opacity=".7">LIVE PORTFOLIO COMMAND CENTER</text><text x="30" y="87" font-family="Arial" font-size="34" font-weight="700" fill="#fff">Everything that needs attention, in one place.</text><text x="30" y="119" font-family="Arial" font-size="15" fill="#fff" opacity=".75">Occupancy, collections, arrivals, sales and maintenance—without leaving this page.</text><g transform="translate(892 124)" font-family="Arial" font-size="12" font-weight="700"><rect width="118" height="38" rx="9" fill="#fff" fill-opacity=".14" stroke="#fff" stroke-opacity=".25"/><text x="59" y="24" text-anchor="middle" fill="#fff">New booking</text><rect x="128" width="110" height="38" rx="9" fill="#fff" fill-opacity=".14" stroke="#fff" stroke-opacity=".25"/><text x="183" y="24" text-anchor="middle" fill="#fff">New lease</text><rect x="248" width="132" height="38" rx="9" fill="#fff" fill-opacity=".14" stroke="#fff" stroke-opacity=".25"/><text x="314" y="24" text-anchor="middle" fill="#fff">Report issue</text></g></g>
<g transform="translate(248 296)" font-family="Arial,sans-serif"><g><rect width="316" height="126" rx="16" fill="#fff" stroke="#e6e9ef"/><circle cx="296" cy="18" r="34" fill="#4f46e5" opacity=".08"/><text x="18" y="30" font-size="12" fill="#667085">Properties</text><text x="18" y="75" font-size="31" font-weight="700" fill="#172033">24</text><text x="18" y="102" font-size="10" fill="#98a2b3">Open details</text></g><g transform="translate(332)"><rect width="316" height="126" rx="16" fill="#fff" stroke="#e6e9ef"/><circle cx="296" cy="18" r="34" fill="#0f9f75" opacity=".08"/><text x="18" y="30" font-size="12" fill="#667085">Occupancy</text><text x="18" y="75" font-size="31" font-weight="700" fill="#172033">87.4%</text><text x="18" y="102" font-size="10" fill="#98a2b3">472 of 540 spaces</text></g><g transform="translate(664)"><rect width="316" height="126" rx="16" fill="#fff" stroke="#e6e9ef"/><circle cx="296" cy="18" r="34" fill="#7c3aed" opacity=".08"/><text x="18" y="30" font-size="12" fill="#667085">Billed this month</text><text x="18" y="75" font-size="28" font-weight="700" fill="#172033">TZS 184.2M</text><text x="18" y="102" font-size="10" fill="#98a2b3">93.1% collected</text></g><g transform="translate(996)"><rect width="326" height="126" rx="16" fill="#fff" stroke="#e6e9ef"/><circle cx="306" cy="18" r="34" fill="#e0526f" opacity=".08"/><text x="18" y="30" font-size="12" fill="#667085">Overdue receivables</text><text x="18" y="75" font-size="28" font-weight="700" fill="#172033">TZS 12.6M</text><text x="18" y="102" font-size="10" fill="#e0526f">18 accounts need attention</text></g></g>
<g transform="translate(248 442)" font-family="Arial,sans-serif"><rect width="820" height="286" rx="16" fill="#fff" stroke="#e6e9ef"/><text x="20" y="27" font-size="9" font-weight="700" letter-spacing="1.5" fill="#4f46e5">INVENTORY</text><text x="20" y="52" font-size="18" font-weight="700" fill="#172033">Space status</text><text x="675" y="40" font-size="11" fill="#4f46e5">Open availability →</text><g transform="translate(20 80)" font-size="12"><circle cx="4" cy="2" r="4" fill="#0f9f75"/><text x="18" y="6" fill="#172033" font-weight="700">Available</text><text x="760" y="6" text-anchor="end" fill="#667085">68</text><rect y="18" width="760" height="8" rx="4" fill="#f0f2f6"/><rect y="18" width="108" height="8" rx="4" fill="#0f9f75"/><circle cx="4" cy="60" r="4" fill="#4f46e5"/><text x="18" y="64" fill="#172033" font-weight="700">Occupied</text><text x="760" y="64" text-anchor="end" fill="#667085">438</text><rect y="76" width="760" height="8" rx="4" fill="#f0f2f6"/><rect y="76" width="682" height="8" rx="4" fill="#4f46e5"/><circle cx="4" cy="118" r="4" fill="#d58a16"/><text x="18" y="122" fill="#172033" font-weight="700">Reserved</text><text x="760" y="122" text-anchor="end" fill="#667085">22</text><rect y="134" width="760" height="8" rx="4" fill="#f0f2f6"/><rect y="134" width="46" height="8" rx="4" fill="#d58a16"/><circle cx="4" cy="176" r="4" fill="#7c3aed"/><text x="18" y="180" fill="#172033" font-weight="700">Under contract</text><text x="760" y="180" text-anchor="end" fill="#667085">12</text><rect y="192" width="760" height="8" rx="4" fill="#f0f2f6"/><rect y="192" width="28" height="8" rx="4" fill="#7c3aed"/></g></g>
<g transform="translate(1084 442)" font-family="Arial,sans-serif"><rect width="486" height="286" rx="16" fill="#fff" stroke="#e6e9ef"/><text x="20" y="27" font-size="9" font-weight="700" letter-spacing="1.5" fill="#4f46e5">ATTENTION</text><text x="20" y="52" font-size="18" font-weight="700" fill="#172033">Operational pulse</text><g transform="translate(20 74)"><g><rect width="446" height="43" rx="10" fill="#f8f9fc"/><circle cx="22" cy="21" r="13" fill="#eeedff"/><text x="47" y="26" font-size="12" fill="#172033">Arrivals today</text><text x="425" y="27" text-anchor="end" font-size="18" font-weight="700" fill="#172033">17</text></g><g transform="translate(0 51)"><rect width="446" height="43" rx="10" fill="#f8f9fc"/><circle cx="22" cy="21" r="13" fill="#fff5df"/><text x="47" y="26" font-size="12" fill="#172033">Leases expiring in 90 days</text><text x="425" y="27" text-anchor="end" font-size="18" font-weight="700" fill="#172033">26</text></g><g transform="translate(0 102)"><rect width="446" height="43" rx="10" fill="#f8f9fc"/><circle cx="22" cy="21" r="13" fill="#eeedff"/><text x="47" y="26" font-size="12" fill="#172033">Active property sales</text><text x="425" y="27" text-anchor="end" font-size="18" font-weight="700" fill="#172033">9</text></g><g transform="translate(0 153)"><rect width="446" height="43" rx="10" fill="#fff7f0"/><circle cx="22" cy="21" r="13" fill="#ffe7d5"/><text x="47" y="26" font-size="12" fill="#172033">Maintenance beyond SLA</text><text x="425" y="27" text-anchor="end" font-size="18" font-weight="700" fill="#e0526f">4</text></g></g></g>
<g transform="translate(248 748)" font-family="Arial,sans-serif"><rect width="1322" height="190" rx="16" fill="#fff" stroke="#e6e9ef"/><text x="20" y="27" font-size="9" font-weight="700" letter-spacing="1.5" fill="#4f46e5">NEXT UP</text><text x="20" y="52" font-size="18" font-weight="700" fill="#172033">Upcoming arrivals and expiries</text><g transform="translate(20 75)"><g><rect width="306" height="90" rx="12" fill="#fff" stroke="#e6e9ef"/><rect x="10" y="10" width="62" height="70" rx="10" fill="#f2f1ff"/><text x="41" y="40" text-anchor="middle" font-size="20" font-weight="700" fill="#4f46e5">18</text><text x="41" y="58" text-anchor="middle" font-size="9" fill="#4f46e5">JUL 2026</text><text x="88" y="28" font-size="9" fill="#4f46e5">ARRIVAL</text><text x="88" y="49" font-size="12" font-weight="700" fill="#172033">Amina M.</text><text x="88" y="67" font-size="10" fill="#667085">Kijiji Lodge · Room 08</text></g><g transform="translate(320)"><rect width="306" height="90" rx="12" fill="#fff" stroke="#e6e9ef"/><rect x="10" y="10" width="62" height="70" rx="10" fill="#f2f1ff"/><text x="41" y="40" text-anchor="middle" font-size="20" font-weight="700" fill="#4f46e5">21</text><text x="41" y="58" text-anchor="middle" font-size="9" fill="#4f46e5">JUL 2026</text><text x="88" y="28" font-size="9" fill="#4f46e5">LEASE EXPIRY</text><text x="88" y="49" font-size="12" font-weight="700" fill="#172033">Mashauri Traders</text><text x="88" y="67" font-size="10" fill="#667085">Mlimani Centre · Shop 14</text></g><g transform="translate(640)"><rect width="306" height="90" rx="12" fill="#fff" stroke="#e6e9ef"/><rect x="10" y="10" width="62" height="70" rx="10" fill="#f2f1ff"/><text x="41" y="40" text-anchor="middle" font-size="20" font-weight="700" fill="#4f46e5">22</text><text x="41" y="58" text-anchor="middle" font-size="9" fill="#4f46e5">JUL 2026</text><text x="88" y="28" font-size="9" fill="#4f46e5">ARRIVAL</text><text x="88" y="49" font-size="12" font-weight="700" fill="#172033">John K.</text><text x="88" y="67" font-size="10" fill="#667085">Ocean Lodge · Villa 02</text></g><g transform="translate(960)"><rect width="322" height="90" rx="12" fill="#fff" stroke="#e6e9ef"/><rect x="10" y="10" width="62" height="70" rx="10" fill="#f2f1ff"/><text x="41" y="40" text-anchor="middle" font-size="20" font-weight="700" fill="#4f46e5">30</text><text x="41" y="58" text-anchor="middle" font-size="9" fill="#4f46e5">JUL 2026</text><text x="88" y="28" font-size="9" fill="#4f46e5">LEASE EXPIRY</text><text x="88" y="49" font-size="12" font-weight="700" fill="#172033">Neema Family</text><text x="88" y="67" font-size="10" fill="#667085">NHC Scheme · Block C-12</text></g></g></g>
</svg>